# xmcd
#
# Track frame offsets:
#	150
#	21872
#	31140
#	44790
#	58185
#	69612
#	81765
#	100945
#	114285
#	125385
#	139157
#	149677
#
# Disc length: 2177 seconds
#
# Revision: 1
# Processed by: cddbd v1.5.2PL0 Copyright (c) Steve Scherf et al.
# Submitted via: audiograbber 1.83.01
#
DISCID=af087f0c
DTITLE=Various Artist - Country Legends
DYEAR=2002
DGENRE=Country
TTITLE0=Willie Nelson - City Of New Orleans
TTITLE1=Flatt and Scruggs - Ballad Of Jed Clampett
TTITLE2=Jimmy Dean - Big Bad John
TTITLE3=Claude King - Wolverton Mountain
TTITLE4=Johnny Horton - The Battle Of New Orleans
TTITLE5=Merle Haggard - Okie From Muskogee
TTITLE6=Kris Kristofferson - Me and Bobby McGee
TTITLE7=Tammy Wynette - D.I.V.O.R.C.E.
TTITLE8=Jimmy Dickens - May The Bird Of Paradise Fly Up Your Nose
TTITLE9=Tanya Tucker - What's Your Mama's Name
TTITLE10=Johnny Cash - Daddy Sang Bass
TTITLE11=Flatt and Scruggs - Dueling Banjos
EXTD=Columbia House Presents\n
EXTT0=
EXTT1=
EXTT2=
EXTT3=
EXTT4=
EXTT5=
EXTT6=
EXTT7=
EXTT8=
EXTT9=
EXTT10=
EXTT11=
PLAYORDER=
